<?xml version="1.0" encoding="UTF-8"?>
<svg width="600px" height="600px" viewBox="0 0 600 600" version="1.1" xmlns="http://www.w3.org/2000/svg" xmlns:xlink="http://www.w3.org/1999/xlink">
    <title>drivers/remeha/assets/icon</title>
    <g id="/drivers/remeha/assets/icon" stroke="none" stroke-width="1" fill="none" fill-rule="evenodd" stroke-linecap="round" stroke-linejoin="round">
        <g id="electric-battery-charge-svgrepo-com" transform="translate(81, 72)" stroke="#020202" stroke-width="40">
            <polygon id="Path" points="99.3793103 59.6205694 40 59.6205694 40 377 238 377 238 59.6205694 178.62069 59.6205694 178.62069 20 99.3793103 20"></polygon>
            <rect id="Rectangle" x="0" y="377" width="278" height="79"></rect>
            <polygon id="Path" points="140.39875 169.945 106.85125 215.305 140.39875 215.305"></polygon>
            <polygon id="Path" points="138.115 258.055 172.135 212.695 138.115 212.695"></polygon>
            <path d="M377.5,59 L417,59 L417,178 L377.5,178 C355.684752,178 338,160.271568 338,138.402439 L338,98.597561 C338,76.7284319 355.684752,59 377.5,59 Z" id="Path" transform="translate(377.5, 118.5) rotate(-90) translate(-377.5, -118.5)"></path>
            <line x1="337.5" y1="0" x2="337.5" y2="79" id="Path"></line>
            <line x1="417.5" y1="0" x2="417.5" y2="79" id="Path"></line>
            <path d="M377,158 L377,356.477492 C377,389.350865 350.387169,416 317.558577,416 L278,416" id="Path"></path>
        </g>
    </g>
</svg>