<?xml version="1.0" encoding="UTF-8"?>
<svg width="600px" height="600px" viewBox="0 0 600 600" version="1.1" xmlns="http://www.w3.org/2000/svg" xmlns:xlink="http://www.w3.org/1999/xlink">
    <title>assets/icon</title>
    <g id="/assets/icon" stroke="none" stroke-width="1" fill="none" fill-rule="evenodd">
        <g id="cable-charge-svgrepo-com">
            <polygon id="Path" points="0 0 600 0 600 600 0 600"></polygon>
            <g id="Shopicon" transform="translate(50, 50.0026)" fill="#000000" fill-rule="nonzero">
                <path d="M263.425,0.37239353 C194.1375,-3.35260647 128.175,20.9723935 77.925,68.6473935 C27.675,116.334894 0,180.747394 0,250.009894 C0,328.722394 37.7625,403.784894 101.0125,450.784894 C112.1125,459.047394 127.775,456.697394 136,445.634894 C144.225,434.547394 141.925,418.884894 130.85,410.647394 C79.4625,372.484894 50,313.934894 50,250.009894 C50,194.597394 72.1375,143.059894 112.35,104.922394 C152.5375,66.7973935 205.15,47.5223935 260.8125,50.2973935 C361.475,55.5848935 444.4375,138.572394 449.7125,239.209894 C454.375,328.034894 399.05,410.272394 315.175,439.172394 C306.0625,442.297394 296.2125,440.822394 288.225,435.109894 C279.825,429.122394 275,419.784894 275,409.522394 L275,358.122394 C304.0375,347.759894 325,320.009894 325,287.522394 L325,238.197394 C325,238.172394 325,238.159894 325,238.134894 L325,163.034894 C325,149.234894 313.8,138.034894 300,138.034894 C286.2,138.034894 275,149.234894 275,163.034894 L275,200.022394 L225,200.022394 L225,163.034894 C225,149.234894 213.8,138.034894 200,138.034894 C186.2,138.034894 175,149.234894 175,163.034894 L175,275.534894 C175,275.547394 175,275.572394 175,275.597394 L175,287.522394 C175,319.997394 195.9625,347.747394 225,358.122394 L225,409.534894 C225,435.784894 237.775,460.559894 259.2,475.834894 C273.1,485.759894 289.15,490.859894 305.4375,490.859894 C314.1375,490.859894 322.9,489.409894 331.4625,486.447394 C436.3125,450.322394 505.4625,347.584894 499.6375,236.609894 C493.0625,110.734894 389.3125,6.97239353 263.425,0.37239353 Z" id="Path"></path>
            </g>
        </g>
    </g>
</svg>